# xmcd CD database file
#
# Track frame offsets:
#	150
#	16952
#	37467
#	54277
#
# Disc length: 996 seconds
#
# Revision: 0
# Processed by: cddbd v1.5PL3 Copyright (c) Steve Scherf et al.
# Submitted via: CDex 1.50beta9
#
DISCID=2e03e204
DTITLE=VOICE - ＣＡＬＬ　ＭＹ　ＮＡＭＥ
DYEAR=1995
DGENRE=J-POP
TTITLE0=ＣＡＬＬ　ＭＹ　ＮＡＭＥ
TTITLE1=ときめかないで
TTITLE2=ＣＡＬＬ　ＭＹ　ＮＡＭＥ（カラオケ）
TTITLE3=ときめかないで（カラオケ）
EXTD=YEAR: 1995
EXTT0=
EXTT1=
EXTT2=
EXTT3=
PLAYORDER=
